# xmcd
#
# Track frame offsets: 
#        182
#        12965
#        38820
#        55490
#        69477
#        84410
#        98530
#        116937
#        133225
#        154982
#        165280
#        193755
#        207607
#        225827
#        252757
#        268197
#
# Disc length: 3887 seconds
#
# Revision: 2
# Processed by: cddbd v1.5.2PL0 Copyright (c) Steve Scherf et al.
# Submitted via: ExactAudioCopy v1.0b1
#
DISCID=db0f2d10
DTITLE=Muddy Waters - Rollin' Stone - Volume 3
DYEAR=1989
DGENRE=Blues
TTITLE0=All Aboard - 1969
TTITLE1=Mean Disposition - 1969
TTITLE2=Blow Wind Blow - 1969
TTITLE3=Can't Loose What You Never Had - 1969
TTITLE4=Walkin' Thru The Park - 1969
TTITLE5=Forty Days And Forty Nights - 1969
TTITLE6=Standin' Round Cryin' - 1969
TTITLE7=I'm Ready - 1969
TTITLE8=Twenty Four Hours - 1969
TTITLE9=Sugar Sweet - 1969
TTITLE10=Long Distance Call - 1969
TTITLE11=Baby, Please Don't Go - 1969
TTITLE12=Honey Bee - 1969
TTITLE13=The Same Thing - 1969
TTITLE14=Got My Mojo Working Pt. 1 - 1969
TTITLE15=Got My Mojo Working Pt. 2 - 1969
EXTD=
EXTT0=
EXTT1=
EXTT2=
EXTT3=
EXTT4=
EXTT5=
EXTT6=
EXTT7=
EXTT8=
EXTT9=
EXTT10=
EXTT11=
EXTT12=
EXTT13=
EXTT14=
EXTT15=
PLAYORDER=
